<!-- icon666.com - MILLIONS vector ICONS FREE --><svg version="1.1" id="Layer_1" xmlns="http://www.w3.org/2000/svg" xmlns:xlink="http://www.w3.org/1999/xlink" x="0px" y="0px" viewBox="0 0 512 512" style="enable-background:new 0 0 512 512;" xml:space="preserve"><g><path style="fill:#DB2B42;" d="M0,512h512V0H0V512z M431.416,80h20v351.992h-20V80z M63.36,401.656 c11.736-1.32,20.528-5.736,26.408-13.24c5.856-7.504,15.92-28.04,30.168-61.608L215,102.872h9.096l113.688,258.696 c7.576,17.136,13.624,27.728,18.168,31.792c4.52,4.064,12.144,6.832,22.832,8.304v8.472H262.728v-8.472 c13.336-1.176,21.928-2.624,25.792-4.32c3.856-1.704,5.792-5.872,5.792-12.528c0-2.208-0.744-6.136-2.224-11.752 s-3.56-11.528-6.24-17.744l-18.264-43.888H147.32c-11.848,29.848-18.928,48.072-21.224,54.648 c-2.304,6.576-3.456,11.792-3.456,15.632c0,7.688,3.112,13.008,9.352,15.968c3.848,1.776,11.112,3.104,21.792,3.984v8.472H63.36 V401.656z"></path><polygon style="fill:#DB2B42;" points="207.584,167.264 155.048,292.936 259.88,292.936 "></polygon></g><path style="fill:#FFFFFF;" d="M153.776,401.656c-10.68-0.88-17.936-2.208-21.792-3.984c-6.24-2.96-9.352-8.28-9.352-15.968 c0-3.84,1.152-9.056,3.456-15.632c2.296-6.576,9.376-24.8,21.224-54.648h120.256l18.264,43.888c2.68,6.208,4.76,12.128,6.24,17.744 s2.224,9.536,2.224,11.752c0,6.656-1.928,10.832-5.792,12.528c-3.856,1.696-12.456,3.144-25.792,4.32v8.472h116.04v-8.472 c-10.696-1.48-18.312-4.24-22.832-8.304c-4.536-4.064-10.584-14.656-18.168-31.792L224.08,102.872h-9.096l-95.056,223.936 c-14.24,33.568-24.304,54.104-30.168,61.608c-5.872,7.504-14.672,11.92-26.408,13.24v8.472h90.424V401.656z M207.584,167.264 l52.296,125.672H155.048L207.584,167.264z"></path><rect x="431.416" y="80" style="fill:#8AD5DD;" width="20" height="351.992"></rect></svg>